<svg width="15" height="15" viewBox="0 0 15 15" fill="none" xmlns="http://www.w3.org/2000/svg">
<path d="M4.75427 9.15608C4.86999 9.04432 5.02497 8.98248 5.18584 8.98387C5.34671 8.98527 5.50059 9.0498 5.61435 9.16355C5.7281 9.27731 5.79263 9.43119 5.79403 9.59206C5.79543 9.75293 5.73358 9.90791 5.62182 10.0236L3.98489 11.6599H4.95736C5.10773 11.66 5.25285 11.7152 5.36516 11.8152C5.47748 11.9152 5.54916 12.053 5.5666 12.2023L5.5709 12.2735C5.5709 12.4362 5.50626 12.5923 5.3912 12.7073C5.27613 12.8224 5.12008 12.887 4.95736 12.887H2.50319C2.34047 12.887 2.18441 12.8224 2.06935 12.7073C1.95429 12.5923 1.88965 12.4362 1.88965 12.2735V9.81932C1.88965 9.6566 1.95429 9.50054 2.06935 9.38548C2.18441 9.27042 2.34047 9.20577 2.50319 9.20577C2.66591 9.20577 2.82197 9.27042 2.93703 9.38548C3.05209 9.50054 3.11673 9.6566 3.11673 9.81932V10.793L4.75427 9.15608ZM9.86876 12.887C9.70604 12.887 9.54998 12.8224 9.43492 12.7073C9.31986 12.5923 9.25522 12.4362 9.25522 12.2735C9.25522 12.1108 9.31986 11.9547 9.43492 11.8396C9.54998 11.7246 9.70604 11.6599 9.86876 11.6599H10.84L9.20491 10.0236C9.09927 9.91798 9.03581 9.77742 9.02643 9.62831C9.01706 9.4792 9.06241 9.3318 9.15398 9.21375L9.20491 9.15608C9.31996 9.04106 9.47599 8.97644 9.63868 8.97644C9.80137 8.97644 9.9574 9.04106 10.0725 9.15608L11.7094 10.7942V9.81932C11.7094 9.66904 11.7646 9.524 11.8644 9.4117C11.9643 9.2994 12.1019 9.22765 12.2511 9.21007L12.3229 9.20577C12.4856 9.20577 12.6417 9.27042 12.7568 9.38548C12.8718 9.50054 12.9365 9.6566 12.9365 9.81932V12.2735C12.9365 12.4362 12.8718 12.5923 12.7568 12.7073C12.6417 12.8224 12.4856 12.887 12.3229 12.887H9.86876ZM4.95736 1.84082C5.12008 1.84082 5.27613 1.90546 5.3912 2.02052C5.50626 2.13558 5.5709 2.29164 5.5709 2.45436C5.5709 2.61708 5.50626 2.77314 5.3912 2.8882C5.27613 3.00326 5.12008 3.0679 4.95736 3.0679H3.98612L5.62121 4.70483C5.72685 4.81048 5.79031 4.95104 5.79968 5.10015C5.80906 5.24926 5.76371 5.39666 5.67213 5.51471L5.62121 5.57238C5.50615 5.6874 5.35012 5.75202 5.18744 5.75202C5.02475 5.75202 4.86872 5.6874 4.75366 5.57238L3.11673 3.93422V4.90853C3.11671 5.05881 3.06154 5.20385 2.96168 5.31615C2.86182 5.42845 2.72422 5.50019 2.57497 5.51778L2.50319 5.52207C2.34047 5.52207 2.18441 5.45743 2.06935 5.34237C1.95429 5.22731 1.88965 5.07125 1.88965 4.90853V2.45436C1.88965 2.29164 1.95429 2.13558 2.06935 2.02052C2.18441 1.90546 2.34047 1.84082 2.50319 1.84082H4.95736ZM12.3229 1.84082C12.4856 1.84082 12.6417 1.90546 12.7568 2.02052C12.8718 2.13558 12.9365 2.29164 12.9365 2.45436V4.90853C12.9365 5.07125 12.8718 5.22731 12.7568 5.34237C12.6417 5.45743 12.4856 5.52207 12.3229 5.52207C12.1602 5.52207 12.0041 5.45743 11.8891 5.34237C11.774 5.22731 11.7094 5.07125 11.7094 4.90853V3.93422L10.0725 5.57238C9.96681 5.67802 9.82624 5.74148 9.67714 5.75085C9.52803 5.76023 9.38063 5.71488 9.26258 5.62331L9.20491 5.57238C9.08989 5.45732 9.02527 5.3013 9.02527 5.13861C9.02527 4.97592 9.08989 4.81989 9.20491 4.70483L10.8406 3.0679H9.86876C9.71848 3.06788 9.57344 3.01271 9.46114 2.91285C9.34884 2.81299 9.27709 2.67539 9.25951 2.52615L9.25522 2.45436C9.25522 2.29164 9.31986 2.13558 9.43492 2.02052C9.54998 1.90546 9.70604 1.84082 9.86876 1.84082H12.3229Z" fill="white"/>
</svg>
