<svg width="16" height="15" viewBox="0 0 16 15" fill="none" xmlns="http://www.w3.org/2000/svg">
<path d="M8.21403 1.22705C11.6026 1.22705 14.3494 3.97388 14.3494 7.36247C14.3494 10.7511 11.6026 13.4979 8.21403 13.4979C4.82544 13.4979 2.07861 10.7511 2.07861 7.36247C2.07861 3.97388 4.82544 1.22705 8.21403 1.22705ZM8.21403 9.81664C8.05131 9.81664 7.89525 9.88128 7.78019 9.99634C7.66513 10.1114 7.60049 10.2675 7.60049 10.4302C7.60049 10.5929 7.66513 10.749 7.78019 10.864C7.89525 10.9791 8.05131 11.0437 8.21403 11.0437C8.37675 11.0437 8.53281 10.9791 8.64787 10.864C8.76293 10.749 8.82757 10.5929 8.82757 10.4302C8.82757 10.2675 8.76293 10.1114 8.64787 9.99634C8.53281 9.88128 8.37675 9.81664 8.21403 9.81664ZM8.21403 3.98799C7.62417 3.98799 7.05846 4.22231 6.64136 4.63941C6.22426 5.05651 5.98994 5.62221 5.98994 6.21208C5.98994 6.3748 6.05458 6.53086 6.16964 6.64592C6.28471 6.76098 6.44076 6.82562 6.60348 6.82562C6.7662 6.82562 6.92226 6.76098 7.03732 6.64592C7.15238 6.53086 7.21703 6.3748 7.21703 6.21208C7.21723 6.0311 7.26669 5.8536 7.36009 5.6986C7.4535 5.54359 7.58734 5.41694 7.74725 5.33221C7.90716 5.24748 8.08712 5.20788 8.26783 5.21764C8.44854 5.22741 8.62318 5.28618 8.77303 5.38765C8.92289 5.48911 9.04229 5.62946 9.11845 5.79362C9.19461 5.95779 9.22465 6.13959 9.20535 6.31953C9.18605 6.49947 9.11813 6.67077 9.00889 6.81504C8.89964 6.95932 8.75319 7.07115 8.58522 7.13853C8.17047 7.30418 7.60049 7.72875 7.60049 8.43617V8.58955C7.60049 8.75227 7.66513 8.90833 7.78019 9.02339C7.89525 9.13845 8.05131 9.20309 8.21403 9.20309C8.37675 9.20309 8.53281 9.13845 8.64787 9.02339C8.76293 8.90833 8.82757 8.75227 8.82757 8.58955C8.82757 8.43985 8.85825 8.365 8.98771 8.30119L9.04108 8.27665C9.52015 8.08393 9.91725 7.73056 10.1643 7.27714C10.4114 6.82371 10.493 6.29845 10.3952 5.79142C10.2975 5.28439 10.0264 4.82717 9.62839 4.49813C9.23043 4.16909 8.7304 3.98874 8.21403 3.98799Z" fill="white"/>
</svg>
