<svg width="11" height="12" viewBox="0 0 11 12" fill="none" xmlns="http://www.w3.org/2000/svg">
<path d="M5.96578 11.2195L5.96024 11.2206L5.92443 11.2382L5.91435 11.2402L5.90729 11.2382L5.87148 11.2206C5.86611 11.2189 5.86207 11.2197 5.85938 11.2231L5.85737 11.2281L5.84879 11.4439L5.85131 11.454L5.85636 11.4606L5.9088 11.4979L5.91636 11.4999L5.92242 11.4979L5.97486 11.4606L5.98091 11.4525L5.98293 11.4439L5.97435 11.2286C5.97301 11.2232 5.97015 11.2202 5.96578 11.2195ZM6.09941 11.1626L6.09286 11.1636L5.99957 11.2105L5.99452 11.2155L5.99301 11.2211L6.00209 11.4379L6.00461 11.4439L6.00864 11.4475L6.11 11.4944C6.11639 11.496 6.12126 11.4947 6.12463 11.4903L6.12664 11.4833L6.1095 11.1737C6.10782 11.1676 6.10445 11.1639 6.09941 11.1626ZM5.73886 11.1636C5.73664 11.1622 5.73399 11.1618 5.73145 11.1623C5.72891 11.1629 5.72669 11.1644 5.72525 11.1666L5.72222 11.1737L5.70508 11.4833C5.70541 11.4893 5.70827 11.4934 5.71365 11.4954L5.72121 11.4944L5.82257 11.4475L5.82761 11.4434L5.82963 11.4379L5.8382 11.2211L5.83669 11.215L5.83165 11.21L5.73886 11.1636Z" fill="#C2C2C2"/>
<path d="M5.66666 0.5C8.4517 0.5 10.7093 2.75759 10.7093 5.54263C10.7093 8.32768 8.4517 10.5853 5.66666 10.5853C2.88161 10.5853 0.624023 8.32768 0.624023 5.54263C0.624023 2.75759 2.88161 0.5 5.66666 0.5ZM5.66666 2.51705C5.53292 2.51705 5.40466 2.57018 5.31009 2.66475C5.21552 2.75932 5.16239 2.88758 5.16239 3.02132V5.54263C5.16242 5.67636 5.21557 5.8046 5.31014 5.89915L6.82293 7.41194C6.91804 7.50379 7.04542 7.55462 7.17763 7.55347C7.30985 7.55232 7.43632 7.49929 7.52982 7.4058C7.62331 7.3123 7.67635 7.18582 7.67749 7.05361C7.67864 6.92139 7.62782 6.79401 7.53596 6.69891L6.17092 5.33387V3.02132C6.17092 2.88758 6.11779 2.75932 6.02322 2.66475C5.92866 2.57018 5.8004 2.51705 5.66666 2.51705Z" fill="#C2C2C2"/>
</svg>
