<svg width="12" height="14" viewBox="0 0 12 14" fill="none" xmlns="http://www.w3.org/2000/svg">
<path d="M6.3335 1.5V2.65789V1.5Z" fill="#C2C2C2"/>
<path d="M6.3335 1.5V2.65789" stroke="#C2C2C2" stroke-width="2" stroke-linecap="round" stroke-linejoin="round"/>
<path d="M6.33373 2.65771C4.41741 2.65771 2.86004 4.21508 2.86004 6.1314V9.60508C2.2811 9.60508 1.70215 10.184 1.70215 10.763H6.33373M6.33373 2.65771C8.25004 2.65771 9.80741 4.21508 9.80741 6.1314V9.60508C10.3864 9.60508 10.9653 10.184 10.9653 10.763H6.33373" fill="#C2C2C2"/>
<path d="M6.33373 2.65771C4.41741 2.65771 2.86004 4.21508 2.86004 6.1314V9.60508C2.2811 9.60508 1.70215 10.184 1.70215 10.763H6.33373H10.9653C10.9653 10.184 10.3864 9.60508 9.80741 9.60508V6.1314C9.80741 4.21508 8.25004 2.65771 6.33373 2.65771Z" stroke="#C2C2C2" stroke-width="2" stroke-linecap="round" stroke-linejoin="round"/>
<path d="M5.17578 11.3423C5.17578 11.9791 5.69683 12.5002 6.33368 12.5002C6.97052 12.5002 7.49157 11.9791 7.49157 11.3423" fill="#C2C2C2"/>
<path d="M5.17578 11.3423C5.17578 11.9791 5.69683 12.5002 6.33368 12.5002C6.97052 12.5002 7.49157 11.9791 7.49157 11.3423" stroke="#C2C2C2" stroke-width="2" stroke-linecap="round" stroke-linejoin="round"/>
</svg>
