<svg width="12" height="12" viewBox="0 0 12 12" fill="none" xmlns="http://www.w3.org/2000/svg">
<path d="M10.0833 2.60733V2.5C10.0833 2.03587 9.89896 1.59075 9.57077 1.26256C9.24258 0.934375 8.79746 0.75 8.33333 0.75C7.8692 0.75 7.42408 0.934375 7.0959 1.26256C6.76771 1.59075 6.58333 2.03587 6.58333 2.5H5.41667C5.41667 2.03587 5.23229 1.59075 4.9041 1.26256C4.57591 0.934375 4.1308 0.75 3.66667 0.75C3.20254 0.75 2.75742 0.934375 2.42923 1.26256C2.10104 1.59075 1.91667 2.03587 1.91667 2.5V2.60733C1.57664 2.72755 1.28205 2.94989 1.07322 3.24393C0.864382 3.53797 0.751495 3.88935 0.75 4.25V9.5C0.75 10.4648 1.53517 11.25 2.5 11.25H9.5C10.4648 11.25 11.25 10.4648 11.25 9.5V4.25C11.2485 3.88935 11.1356 3.53797 10.9268 3.24393C10.7179 2.94989 10.4234 2.72755 10.0833 2.60733ZM7.75 2.5C7.75 2.34529 7.81146 2.19692 7.92085 2.08752C8.03025 1.97812 8.17862 1.91667 8.33333 1.91667C8.48804 1.91667 8.63642 1.97812 8.74581 2.08752C8.85521 2.19692 8.91667 2.34529 8.91667 2.5V3.66667C8.91667 3.82138 8.85521 3.96975 8.74581 4.07915C8.63642 4.18854 8.48804 4.25 8.33333 4.25C8.17862 4.25 8.03025 4.18854 7.92085 4.07915C7.81146 3.96975 7.75 3.82138 7.75 3.66667V2.5ZM3.08333 2.5C3.08333 2.34529 3.14479 2.19692 3.25419 2.08752C3.36358 1.97812 3.51196 1.91667 3.66667 1.91667C3.82138 1.91667 3.96975 1.97812 4.07915 2.08752C4.18854 2.19692 4.25 2.34529 4.25 2.5V3.66667C4.25 3.82138 4.18854 3.96975 4.07915 4.07915C3.96975 4.18854 3.82138 4.25 3.66667 4.25C3.51196 4.25 3.36358 4.18854 3.25419 4.07915C3.14479 3.96975 3.08333 3.82138 3.08333 3.66667V2.5ZM10.0833 9.5C10.0833 9.82142 9.822 10.0833 9.5 10.0833H2.5C2.178 10.0833 1.91667 9.82142 1.91667 9.5V6H10.0833V9.5Z" fill="#C2C2C2"/>
</svg>
