<svg width="16" height="15" viewBox="0 0 16 15" fill="none" xmlns="http://www.w3.org/2000/svg">
<path d="M8.35569 13.6323L8.33268 13.6286C8.3359 13.6311 8.33969 13.6327 8.34371 13.6334C8.34773 13.634 8.35185 13.6336 8.35569 13.6323ZM13.5871 5.40069C13.5805 5.36599 13.5626 5.33447 13.536 5.31115C13.5095 5.28782 13.476 5.27402 13.4407 5.27194C13.4055 5.26986 13.3705 5.27961 13.3415 5.29966C13.3124 5.3197 13.2908 5.34888 13.2802 5.38257C13.2701 5.41455 13.25 5.4425 13.223 5.46239C13.196 5.48229 13.1634 5.4931 13.1298 5.49329H12.6849C12.6561 5.49329 12.6279 5.48544 12.6032 5.47057L11.9596 5.08462C11.9349 5.06975 11.9067 5.0619 11.8779 5.0619H10.8483C10.817 5.0619 10.7863 5.07121 10.7603 5.08864L9.49055 5.93504C9.4686 5.94966 9.45064 5.96952 9.43829 5.99281C9.42594 6.01611 9.41958 6.04212 9.4198 6.06849V7.26892C9.41977 7.29769 9.42757 7.32593 9.44236 7.3506C9.45716 7.37528 9.47839 7.39546 9.50378 7.40898L11.1687 8.29766C11.1937 8.31112 11.2147 8.331 11.2294 8.35527C11.2442 8.37954 11.2522 8.4073 11.2527 8.43571L11.2604 9.11127C11.2609 9.13924 11.2687 9.1666 11.2831 9.19058C11.2975 9.21456 11.3179 9.23433 11.3424 9.24788L12.0113 9.61802C12.0361 9.63179 12.0568 9.65192 12.0712 9.67634C12.0856 9.70076 12.0932 9.72858 12.0933 9.75693V11.1547C12.0933 11.1852 12.1021 11.2151 12.1187 11.2408C12.1353 11.2664 12.1589 11.2867 12.1867 11.2993C12.2146 11.3119 12.2455 11.3162 12.2757 11.3116C12.3059 11.3071 12.3341 11.2939 12.357 11.2737C12.6268 11.0362 13.0136 10.6893 13.0651 10.6099C13.1502 10.4782 13.2301 10.3433 13.3047 10.2053C13.4591 9.91926 13.5899 9.62109 13.6958 9.31374C14.0605 8.25797 13.7723 6.36011 13.5871 5.40069ZM8.91363 8.70864L7.14979 7.38569C7.12988 7.37075 7.10566 7.36268 7.08077 7.36268H6.24386C6.22955 7.3627 6.21537 7.35988 6.20214 7.3544C6.18891 7.34893 6.1769 7.34089 6.16679 7.33076L5.7722 6.93617C5.76151 6.92549 5.74882 6.91702 5.73485 6.91125C5.72089 6.90548 5.70592 6.90251 5.69081 6.90252H4.16108C4.13952 6.90252 4.11845 6.89613 4.10052 6.88415C4.08259 6.87218 4.06862 6.85515 4.06037 6.83524C4.05212 6.81532 4.04996 6.7934 4.05417 6.77226C4.05838 6.75111 4.06876 6.73169 4.084 6.71645L4.32616 6.47429C4.33627 6.46416 4.34829 6.45612 4.36151 6.45064C4.37474 6.44516 4.38892 6.44235 4.40324 6.44237H5.33419C5.38433 6.44237 5.4331 6.42599 5.47307 6.39572C5.51305 6.36545 5.54204 6.32296 5.55564 6.2747L5.7538 5.57008C5.75802 5.55494 5.7653 5.54082 5.7752 5.52861C5.78509 5.51639 5.79738 5.50633 5.81131 5.49905L6.60135 5.09238C6.61912 5.0832 6.63403 5.06929 6.64443 5.0522C6.65483 5.0351 6.66032 5.01547 6.6603 4.99546V4.63597C6.6603 4.61365 6.66712 4.59188 6.67986 4.57356L7.09975 3.96903C7.11235 3.95086 7.13022 3.93701 7.15094 3.92934L7.73851 3.70875C7.75929 3.70096 7.7772 3.68701 7.78985 3.66877C7.80249 3.65052 7.80926 3.62885 7.80926 3.60665V3.27879C7.80925 3.26081 7.80482 3.24312 7.79634 3.22726C7.78786 3.21141 7.7756 3.19789 7.76065 3.18791L7.17165 2.7962C7.15547 2.78556 7.13677 2.77937 7.11743 2.77825C7.09809 2.77714 7.0788 2.78115 7.0615 2.78988L6.25968 3.19079C6.24134 3.19984 6.22081 3.20354 6.20046 3.20146C6.18011 3.19937 6.16076 3.19159 6.14464 3.179L5.76444 2.87846C5.75146 2.86802 5.74104 2.85476 5.73398 2.83969C5.72691 2.82461 5.72338 2.80812 5.72366 2.79147C5.72393 2.77483 5.72801 2.75846 5.73558 2.74363C5.74314 2.7288 5.754 2.71589 5.76731 2.7059L6.07619 2.47841C6.09018 2.46815 6.1015 2.4547 6.10923 2.43917C6.11695 2.42365 6.12085 2.4065 6.1206 2.38916C6.12034 2.37182 6.11594 2.35479 6.10777 2.3395C6.0996 2.32421 6.08788 2.31109 6.0736 2.30125L5.59245 1.96562C5.5758 1.95389 5.55618 1.94708 5.53584 1.94596C5.5155 1.94485 5.49526 1.94946 5.47741 1.95929C5.30342 2.05449 4.79293 2.33633 4.61175 2.46317C3.77344 3.05107 3.09879 3.84292 2.65148 4.76395C2.59914 4.87208 2.53443 4.98223 2.5281 5.10101C2.52177 5.21979 2.42859 5.48495 2.38977 5.59223C2.38453 5.60673 2.38244 5.62218 2.38363 5.63755C2.38482 5.65292 2.38926 5.66786 2.39667 5.68138L3.4231 7.56745C3.43234 7.58459 3.44606 7.5989 3.46279 7.60886L4.54272 8.25711C4.55673 8.26545 4.56868 8.27684 4.5777 8.29043C4.58671 8.30402 4.59254 8.31947 4.59478 8.33562L4.81105 9.90418C4.81316 9.91921 4.81837 9.93364 4.82634 9.94656C4.83431 9.95948 4.84487 9.97061 4.85735 9.97924L5.70001 10.5585C5.72443 10.5752 5.74142 10.6008 5.74747 10.6298L6.1944 12.7523C6.1969 12.7647 6.20168 12.7766 6.20849 12.7873C6.25048 12.8552 6.41786 13.1037 6.61975 13.1405C6.60106 13.1457 6.58438 13.1575 6.56568 13.1629C6.61418 13.1715 6.66218 13.1826 6.70948 13.1963C6.767 13.2118 6.82452 13.2251 6.88204 13.2374C6.97206 13.2553 6.98097 13.2691 7.02411 13.1891C7.08163 13.0821 7.14749 13.0453 7.19667 13.0321C7.21697 13.0274 7.23553 13.0171 7.25024 13.0024C7.26494 12.9876 7.27518 12.969 7.27979 12.9487L7.5694 11.6062C7.57549 11.578 7.59191 11.5532 7.61541 11.5366L8.9096 10.6191C8.92464 10.6085 8.93691 10.5944 8.94537 10.578C8.95382 10.5617 8.95823 10.5435 8.95821 10.5251V8.80067C8.95838 8.78293 8.95444 8.76539 8.94671 8.74943C8.93897 8.73346 8.92765 8.7195 8.91363 8.70864Z" fill="white"/>
<path d="M8.21187 1.38037C8.21187 1.38037 8.10689 1.38641 8.08561 1.38699C7.92973 1.39159 7.77424 1.40232 7.61913 1.4192C7.05369 1.48056 6.49993 1.62244 5.97465 1.84053C6.04453 1.88884 5.92432 1.93313 5.92432 1.93313L6.11241 2.30068H7.119L7.80923 2.6458L8.41319 2.30068L8.21187 1.38037ZM10.8644 3.4528L11.3277 3.05016C11.3422 3.03758 11.3533 3.02156 11.36 3.00357C11.3668 2.98558 11.3689 2.9662 11.3662 2.94718C11.3635 2.92817 11.3561 2.91013 11.3447 2.89471C11.3332 2.87929 11.3181 2.86699 11.3007 2.85891L10.7597 2.60784C10.7322 2.59502 10.7008 2.59357 10.6722 2.6038C10.6437 2.61403 10.6203 2.63512 10.6073 2.66248L10.3844 3.12868C10.3722 3.15416 10.3699 3.18322 10.3778 3.21032C10.3857 3.23742 10.4033 3.26067 10.4272 3.27564L10.7281 3.46373C10.749 3.47673 10.7735 3.48269 10.798 3.48072C10.8226 3.47875 10.8458 3.46897 10.8644 3.4528ZM13.0332 4.04554L12.8655 3.7867C12.8629 3.78267 12.8606 3.77865 12.8583 3.77433C12.8281 3.7125 12.5782 3.20777 12.3694 3.01191C12.2126 2.8638 12.1681 2.90636 12.1557 2.93915C12.1486 2.95728 12.1368 2.97318 12.1215 2.98517L11.292 3.65556C11.2716 3.67208 11.2461 3.68112 11.2199 3.68115H10.7905C10.7754 3.68114 10.7604 3.68411 10.7464 3.68988C10.7325 3.69565 10.7198 3.70412 10.7091 3.7148L10.364 4.05992C10.3533 4.0706 10.3448 4.08329 10.339 4.09726C10.3332 4.11122 10.3302 4.12619 10.3302 4.14131C10.3302 4.15643 10.3332 4.1714 10.339 4.18536C10.3448 4.19933 10.3533 4.21201 10.364 4.2227L10.7091 4.56782C10.7198 4.5785 10.7325 4.58696 10.7464 4.59274C10.7604 4.59851 10.7754 4.60148 10.7905 4.60146H12.9523C12.9679 4.60148 12.9832 4.59835 12.9975 4.59226C13.0118 4.58618 13.0247 4.57727 13.0355 4.56606C13.0462 4.55486 13.0546 4.54159 13.0601 4.52706C13.0656 4.51254 13.068 4.49705 13.0674 4.48154L13.0516 4.10335C13.0507 4.08278 13.0444 4.06281 13.0332 4.04554Z" fill="white"/>
<path d="M8.03936 2.0708C9.26365 2.0707 10.4501 2.49511 11.3965 3.27171C12.343 4.04832 12.9909 5.12907 13.2298 6.32982C13.4688 7.53057 13.284 8.77702 12.7069 9.85679C12.1299 10.9366 11.1963 11.7828 10.0652 12.2514C8.93416 12.72 7.67561 12.7819 6.50401 12.4266C5.33241 12.0713 4.32026 11.3208 3.64002 10.3028C2.95977 9.28493 2.65352 8.06264 2.77345 6.84424C2.89337 5.62583 3.43206 4.48671 4.29771 3.62095C4.78789 3.12798 5.37098 2.73713 6.01324 2.47105C6.6555 2.20496 7.34416 2.06892 8.03936 2.0708ZM8.03936 0.92041C4.48177 0.92041 1.59717 3.80501 1.59717 7.3626C1.59717 10.9202 4.48177 13.8048 8.03936 13.8048C11.5969 13.8048 14.4815 10.9202 14.4815 7.3626C14.4815 3.80501 11.5969 0.92041 8.03936 0.92041Z" fill="white"/>
</svg>
