<svg width="26" height="26" viewBox="0 0 26 26" fill="none" xmlns="http://www.w3.org/2000/svg">
<path d="M23.1812 13.3558H20.5681C20.1076 13.3548 19.6594 13.5047 19.2922 13.7825C18.9249 14.0603 18.6588 14.4508 18.5345 14.8942L16.0583 23.7031C16.0423 23.7578 16.0091 23.8059 15.9635 23.8401C15.9179 23.8743 15.8624 23.8927 15.8054 23.8927C15.7484 23.8927 15.6929 23.8743 15.6473 23.8401C15.6017 23.8059 15.5685 23.7578 15.5525 23.7031L9.73614 3.00851C9.72018 2.9538 9.68691 2.90573 9.64131 2.87153C9.59571 2.83733 9.54025 2.81885 9.48326 2.81885C9.42626 2.81885 9.3708 2.83733 9.3252 2.87153C9.27961 2.90573 9.24633 2.9538 9.23037 3.00851L6.7542 11.8174C6.63035 12.2591 6.36579 12.6483 6.00067 12.9259C5.63554 13.2035 5.1898 13.3545 4.73111 13.3558H2.10742" stroke="white" stroke-width="2.76908" stroke-linecap="round" stroke-linejoin="round"/>
</svg>
