<svg width="28" height="28" viewBox="0 0 28 28" fill="none" xmlns="http://www.w3.org/2000/svg">
<path fill-rule="evenodd" clip-rule="evenodd" d="M12.91 3.09082C11.4633 3.09082 10.076 3.66549 9.05303 4.68842C8.03011 5.71135 7.45543 7.09873 7.45543 8.54537C7.45543 9.992 8.03011 11.3794 9.05303 12.4023C10.076 13.4252 11.4633 13.9999 12.91 13.9999C14.3566 13.9999 15.744 13.4252 16.7669 12.4023C17.7899 11.3794 18.3645 9.992 18.3645 8.54537C18.3645 7.09873 17.7899 5.71135 16.7669 4.68842C15.744 3.66549 14.3566 3.09082 12.91 3.09082ZM12.91 15.0908C10.2973 15.0908 7.91907 15.8479 6.17034 16.9148C5.29762 17.4472 4.55143 18.0755 4.01252 18.7585C3.48234 19.4283 3.0918 20.2323 3.0918 21.0908C3.0918 22.0126 3.54016 22.7392 4.18598 23.2574C4.79689 23.7483 5.60307 24.0734 6.45943 24.3003C8.18089 24.7552 10.4783 24.909 12.91 24.909C13.1616 24.909 13.4107 24.9072 13.6573 24.9035C13.84 24.901 14.0191 24.8527 14.1782 24.7629C14.3374 24.6731 14.4714 24.5448 14.5681 24.3898C14.6647 24.2347 14.7209 24.0578 14.7314 23.8754C14.7419 23.693 14.7064 23.5109 14.6282 23.3457C14.2145 22.4702 14.0003 21.5137 14.0009 20.5454C14.0009 19.1795 14.4187 17.9141 15.1322 16.8657C15.2382 16.7099 15.3021 16.5293 15.3176 16.3415C15.3331 16.1537 15.2996 15.965 15.2205 15.794C15.1414 15.6229 15.0193 15.4753 14.8662 15.3654C14.7131 15.2556 14.5341 15.1873 14.3467 15.1672C13.8769 15.1163 13.398 15.0908 12.91 15.0908Z" fill="#838383"/>
<path d="M22.6234 17.2729L18.6 20.7416L17.3018 19.6224L16.1826 20.5881L18.6644 22.7275L19.7741 21.7719L19.7836 21.78L23.819 18.3033L22.6234 17.2729Z" fill="#838383"/>
</svg>
