<svg width="20" height="21" viewBox="0 0 20 21" fill="none" xmlns="http://www.w3.org/2000/svg">
<g clip-path="url(#clip0_554_12988)">
<path d="M11.4405 1.97848L19.8054 16.9708C19.933 17.1994 20.0001 17.4587 20.0001 17.7227C20.0001 17.9867 19.933 18.246 19.8054 18.4746C19.6779 18.7032 19.4944 18.8931 19.2735 19.0251C19.0526 19.1571 18.802 19.2266 18.5469 19.2266H1.81699C1.56189 19.2266 1.31129 19.1571 1.09038 19.0251C0.869457 18.8931 0.686006 18.7032 0.55846 18.4746C0.430914 18.246 0.363768 17.9867 0.36377 17.7227C0.363771 17.4587 0.430921 17.1994 0.558469 16.9708L8.92343 1.97848C9.48245 0.975922 10.8805 0.975922 11.4405 1.97848ZM10.182 13.8609C9.925 13.8609 9.67857 13.9665 9.49688 14.1545C9.31518 14.3425 9.21311 14.5975 9.21311 14.8634C9.21311 15.1293 9.31518 15.3843 9.49688 15.5723C9.67857 15.7603 9.925 15.866 10.182 15.866C10.4389 15.866 10.6853 15.7603 10.867 15.5723C11.0487 15.3843 11.1508 15.1293 11.1508 14.8634C11.1508 14.5975 11.0487 14.3425 10.867 14.1545C10.6853 13.9665 10.4389 13.8609 10.182 13.8609ZM10.182 6.84292C9.94465 6.84295 9.71561 6.9331 9.53828 7.09628C9.36095 7.25945 9.24766 7.4843 9.21989 7.72818L9.21311 7.84548V11.8557C9.21338 12.1113 9.30794 12.357 9.47746 12.5429C9.64697 12.7287 9.87866 12.8405 10.1252 12.8555C10.3717 12.8704 10.6144 12.7874 10.8038 12.6234C10.9931 12.4594 11.1148 12.2268 11.144 11.973L11.1508 11.8557V7.84548C11.1508 7.57958 11.0487 7.32458 10.867 7.13656C10.6853 6.94854 10.4389 6.84292 10.182 6.84292Z" fill="#A64544"/>
</g>
<defs>
<clipPath id="clip0_554_12988">
<rect width="19.6364" height="19.6364" fill="white" transform="translate(0.36377 0.408203)"/>
</clipPath>
</defs>
</svg>
